<svg width="315" height="280" viewBox="0 0 315 280" fill="none" xmlns="http://www.w3.org/2000/svg">
<rect width="315" height="279.033" rx="30" transform="matrix(1 0 0 -1 0 279.033)" fill="white"/>
<path d="M20.7471 245.131C20.7471 242.731 22.6631 241.035 25.4316 241.035C28.1035 241.035 29.9404 242.582 29.9404 244.7C29.9404 246.282 28.8857 247.469 27.4883 248.857L24.3945 251.837V251.889H30.1162V253.999H20.8965V252.215L25.6777 247.609C26.9609 246.326 27.3564 245.684 27.3564 244.805C27.3564 243.856 26.5215 243.1 25.3438 243.1C24.1133 243.1 23.208 243.962 23.208 245.131V245.175H20.7471V245.131ZM31.6104 245.131C31.6104 242.731 33.5264 241.035 36.2949 241.035C38.9668 241.035 40.8037 242.582 40.8037 244.7C40.8037 246.282 39.749 247.469 38.3516 248.857L35.2578 251.837V251.889H40.9795V253.999H31.7598V252.215L36.541 247.609C37.8242 246.326 38.2197 245.684 38.2197 244.805C38.2197 243.856 37.3848 243.1 36.207 243.1C34.9766 243.1 34.0713 243.962 34.0713 245.131V245.175H31.6104V245.131ZM44.4512 256.381H42.5088L43.2383 251.626H45.6465L44.4512 256.381ZM52.3174 254.28C49.5928 254.28 47.6328 252.663 47.5537 250.369H50.0059C50.1553 251.441 51.1045 252.179 52.335 252.179C53.7236 252.179 54.6816 251.213 54.6816 249.833C54.6816 248.427 53.7236 247.442 52.3525 247.442C51.3945 247.442 50.5684 247.882 50.1289 248.611H47.7559L48.3799 241.316H56.4482V243.426H50.4629L50.1729 246.897H50.2256C50.7441 246.045 51.7549 245.509 53.0469 245.509C55.4727 245.509 57.2129 247.293 57.2129 249.762C57.2129 252.452 55.2266 254.28 52.3174 254.28ZM64.7363 253.999V251.74H58.4258V249.481C59.5332 247.372 60.9131 245.148 63.5146 241.316H67.2588V249.613H68.9111V251.74H67.2588V253.999H64.7363ZM60.7549 249.622V249.692H64.7891V243.197H64.7363C62.8906 245.904 61.7832 247.635 60.7549 249.622ZM75.0107 254.28C72.585 254.28 70.6777 252.839 70.3262 250.764H72.9453C73.2002 251.617 74.0352 252.179 75.0547 252.179C76.8037 252.179 77.8672 250.518 77.7969 247.609C77.7881 247.609 77.7705 247.609 77.7705 247.609H77.7529H77.7441C77.2871 248.848 76.0391 249.683 74.3691 249.683C71.9785 249.683 70.1592 247.908 70.1592 245.5C70.1592 242.889 72.2158 241.026 75.0459 241.026C76.874 241.026 78.3945 241.844 79.2734 243.346C79.9766 244.427 80.3369 245.851 80.3369 247.548C80.3369 251.749 78.3506 254.28 75.0107 254.28ZM75.0635 247.688C76.3818 247.688 77.3838 246.721 77.3838 245.438C77.3838 244.146 76.373 243.144 75.0811 243.144C73.7803 243.144 72.752 244.146 72.752 245.421C72.752 246.721 73.7451 247.688 75.0635 247.688Z" fill="#555AFE"/>
<path d="M24.751 227.999H23.5205V219.242H20.3418V218.135H27.9297V219.242H24.751V227.999ZM30.6777 228.067C28.6064 228.067 27.2803 226.597 27.2803 224.314C27.2803 222.024 28.6064 220.561 30.6777 220.561C32.749 220.561 34.0752 222.024 34.0752 224.314C34.0752 226.597 32.749 228.067 30.6777 228.067ZM30.6777 227.008C32.0518 227.008 32.8652 226.003 32.8652 224.314C32.8652 222.619 32.0518 221.621 30.6777 221.621C29.3037 221.621 28.4902 222.626 28.4902 224.314C28.4902 226.003 29.3105 227.008 30.6777 227.008ZM35.7158 218.969H36.9053V220.63H38.3408V221.614H36.9053V226.037C36.9053 226.714 37.1924 227.021 37.8213 227.021C37.9648 227.021 38.252 227.001 38.334 226.987V227.992C38.1904 228.026 37.8486 228.053 37.5684 228.053C36.2354 228.053 35.7158 227.5 35.7158 226.085V221.614H34.6904V220.63H35.7158V218.969ZM41.998 227.035C43.2012 227.035 44.083 226.256 44.083 225.196V224.601L42.1553 224.724C41.0479 224.793 40.4736 225.196 40.4736 225.907C40.4736 226.591 41.0684 227.035 41.998 227.035ZM41.7451 228.067C40.248 228.067 39.2568 227.206 39.2568 225.9C39.2568 224.635 40.2275 223.89 42.0186 223.781L44.083 223.658V223.043C44.083 222.127 43.4814 221.621 42.3945 221.621C41.54 221.621 40.9043 222.058 40.7607 222.756H39.6191C39.6533 221.511 40.8633 220.561 42.4082 220.561C44.1514 220.561 45.2725 221.491 45.2725 222.94V227.999H44.1445V226.72H44.1172C43.7002 227.541 42.7773 228.067 41.7451 228.067ZM46.9199 227.999V217.704H48.1094V227.999H46.9199Z" fill="#7F7F7F"/>
<path d="M294 213.545V259.033H90.7095V222.226C96.2939 219.908 104.144 217.601 113.562 217.611C117.981 217.621 122.923 217.631 128.893 219.758C133.063 221.247 137.635 223.724 143.935 227.13C148.981 229.867 150.781 231.066 153.754 230.966C156.767 230.876 158.944 229.517 163.155 226.371C174.645 217.811 176.437 214.514 183.484 211.268C189.06 208.701 192.154 208.831 194.098 209.2C197.007 209.759 199.152 211.248 201.683 212.996C204.158 214.704 204.432 215.343 209.582 219.938C212.925 222.925 214.636 224.443 216.388 225.622C220.55 228.429 222.792 229.937 225.628 229.777C229.3 229.567 232.169 226.661 236.387 222.395C239.626 219.129 241.144 216.602 244.431 216.152C245.973 215.943 247.187 216.282 248.175 216.562C252.345 217.731 254.041 220.547 256.676 222.595C260.822 225.832 265.732 225.931 268.504 226.001C275.728 226.161 281.24 222.635 286.607 219.209C289.91 217.101 292.393 215.004 294 213.545Z" fill="url(#paint0_linear_16_2623)" fill-opacity="0.3"/>
<path d="M90.7095 222.226C96.2939 219.908 104.144 217.601 113.562 217.611C117.981 217.611 122.923 217.631 128.893 219.758C133.063 221.247 137.635 223.724 143.935 227.13C148.981 229.867 150.781 231.066 153.754 230.966C156.767 230.876 158.944 229.517 163.155 226.371C174.645 217.811 176.437 214.514 183.484 211.268C189.06 208.701 192.154 208.831 194.098 209.2C197.007 209.759 199.152 211.248 201.683 212.996C204.158 214.704 204.432 215.343 209.582 219.938C212.925 222.925 214.636 224.443 216.388 225.622C220.55 228.429 222.792 229.937 225.628 229.777C229.3 229.567 232.169 226.661 236.387 222.395C239.626 219.129 241.144 216.602 244.431 216.152C245.973 215.943 247.187 216.282 248.175 216.562C252.345 217.731 254.041 220.547 256.676 222.595C260.822 225.832 265.732 225.931 268.504 226.001C275.728 226.161 281.24 222.635 286.607 219.209C289.91 217.101 292.393 215.004 294 213.545" stroke="#555AFE" stroke-width="2" stroke-miterlimit="10"/>
<path d="M24.1191 190.999H20.8203V182.543H24.1309C25.5781 182.543 26.5566 183.387 26.5566 184.653C26.5566 185.532 25.9121 186.352 25.0977 186.499V186.545C26.2461 186.692 26.9844 187.5 26.9844 188.625C26.9844 190.114 25.918 190.999 24.1191 190.999ZM21.875 183.475V186.188H23.5625C24.8105 186.188 25.4902 185.69 25.4902 184.776C25.4902 183.938 24.916 183.475 23.8906 183.475H21.875ZM21.875 190.067H23.9609C25.2324 190.067 25.9004 189.551 25.9004 188.573C25.9004 187.594 25.209 187.096 23.8613 187.096H21.875V190.067ZM28.1094 190.999V182.174H29.1289V190.999H28.1094ZM33.1719 191.057C31.3965 191.057 30.2598 189.797 30.2598 187.84C30.2598 185.877 31.3965 184.624 33.1719 184.624C34.9473 184.624 36.084 185.877 36.084 187.84C36.084 189.797 34.9473 191.057 33.1719 191.057ZM33.1719 190.149C34.3496 190.149 35.0469 189.288 35.0469 187.84C35.0469 186.387 34.3496 185.532 33.1719 185.532C31.9941 185.532 31.2969 186.393 31.2969 187.84C31.2969 189.288 32 190.149 33.1719 190.149ZM42.377 186.739H41.375C41.2461 186.065 40.6836 185.532 39.7344 185.532C38.6328 185.532 37.8828 186.446 37.8828 187.84C37.8828 189.276 38.6445 190.149 39.7461 190.149C40.625 190.149 41.2109 189.739 41.3867 188.977H42.3887C42.2188 190.208 41.1816 191.057 39.7402 191.057C38.0059 191.057 36.8457 189.827 36.8457 187.84C36.8457 185.901 38 184.624 39.7285 184.624C41.293 184.624 42.248 185.631 42.377 186.739ZM44.4453 187.506L47.2754 184.682H48.5176L45.7578 187.413L48.5996 190.999H47.416L45.043 188.04L44.4453 188.602V190.999H43.4258V182.174H44.4453V187.506ZM51.6055 185.52C50.6152 185.52 49.9004 186.241 49.8301 187.307H53.3047C53.2812 186.235 52.6016 185.52 51.6055 185.52ZM53.2812 189.194H54.2891C54.1133 190.278 53.0176 191.057 51.6699 191.057C49.8945 191.057 48.7754 189.821 48.7754 187.864C48.7754 185.907 49.9004 184.624 51.623 184.624C53.3105 184.624 54.3652 185.813 54.3652 187.723V188.122H49.8301V188.18C49.8301 189.381 50.5684 190.161 51.6934 190.161C52.4844 190.161 53.0996 189.786 53.2812 189.194ZM57.834 191.057C56.2461 191.057 55.127 189.768 55.127 187.84C55.127 185.913 56.2402 184.624 57.8105 184.624C58.7129 184.624 59.4395 185.016 59.8262 185.708H59.8496V182.174H60.8691V190.999H59.8965V189.932H59.8789C59.4688 190.659 58.748 191.057 57.834 191.057ZM58.0156 185.532C56.9082 185.532 56.1699 186.446 56.1699 187.84C56.1699 189.241 56.9082 190.149 58.0156 190.149C59.1113 190.149 59.8555 189.217 59.8555 187.84C59.8555 186.469 59.1113 185.532 58.0156 185.532Z" fill="#7F7F7F"/>
<path d="M82.134 190.499C82.5189 191.165 83.4811 191.165 83.866 190.499L86.4641 185.999C86.849 185.332 86.3679 184.499 85.5981 184.499H80.4019C79.6321 184.499 79.151 185.332 79.5359 185.999L82.134 190.499Z" fill="#FF2525"/>
<path d="M95.6445 191.139C93.6699 191.139 92.5273 189.44 92.5273 186.768C92.5273 184.12 93.6816 182.403 95.6445 182.403C97.6074 182.403 98.75 184.108 98.75 186.762C98.75 189.434 97.6133 191.139 95.6445 191.139ZM95.6445 190.219C96.9629 190.219 97.6895 188.877 97.6895 186.768C97.6895 184.688 96.9512 183.329 95.6445 183.329C94.3379 183.329 93.5879 184.7 93.5879 186.762C93.5879 188.872 94.3203 190.219 95.6445 190.219ZM100.508 191.057C100.133 191.057 99.8398 190.764 99.8398 190.389C99.8398 190.008 100.133 189.721 100.508 189.721C100.889 189.721 101.176 190.008 101.176 190.389C101.176 190.764 100.889 191.057 100.508 191.057ZM105.383 191.139C103.408 191.139 102.266 189.44 102.266 186.768C102.266 184.12 103.42 182.403 105.383 182.403C107.346 182.403 108.488 184.108 108.488 186.762C108.488 189.434 107.352 191.139 105.383 191.139ZM105.383 190.219C106.701 190.219 107.428 188.877 107.428 186.768C107.428 184.688 106.689 183.329 105.383 183.329C104.076 183.329 103.326 184.7 103.326 186.762C103.326 188.872 104.059 190.219 105.383 190.219ZM110.838 190.999H109.818L116.006 182.543H117.014L110.838 190.999ZM117.559 188.983C117.559 190.26 116.861 191.092 115.789 191.092C114.717 191.092 114.014 190.26 114.014 188.983C114.014 187.711 114.717 186.879 115.789 186.879C116.861 186.879 117.559 187.711 117.559 188.983ZM115.789 190.377C116.305 190.377 116.621 189.844 116.621 188.983C116.621 188.116 116.316 187.6 115.789 187.6C115.273 187.6 114.951 188.133 114.951 188.983C114.951 189.838 115.273 190.377 115.789 190.377ZM112.854 184.542C112.854 185.819 112.156 186.651 111.084 186.651C110.012 186.651 109.309 185.819 109.309 184.542C109.309 183.27 110.012 182.438 111.084 182.438C112.156 182.438 112.854 183.27 112.854 184.542ZM111.084 185.936C111.6 185.936 111.916 185.403 111.916 184.542C111.916 183.674 111.611 183.159 111.084 183.159C110.568 183.159 110.246 183.692 110.246 184.542C110.246 185.397 110.568 185.936 111.084 185.936Z" fill="#FF2525"/>
<path d="M164.201 190.999H163.146V187.36L160.146 182.543H161.348L163.656 186.34H163.691L166 182.543H167.201L164.201 187.36V190.999ZM169.445 185.52C168.455 185.52 167.74 186.241 167.67 187.307H171.145C171.121 186.235 170.441 185.52 169.445 185.52ZM171.121 189.194H172.129C171.953 190.278 170.857 191.057 169.51 191.057C167.734 191.057 166.615 189.821 166.615 187.864C166.615 185.907 167.74 184.624 169.463 184.624C171.15 184.624 172.205 185.813 172.205 187.723V188.122H167.67V188.18C167.67 189.381 168.408 190.161 169.533 190.161C170.324 190.161 170.939 189.786 171.121 189.194ZM175.34 190.172C176.371 190.172 177.127 189.504 177.127 188.596V188.086L175.475 188.192C174.525 188.25 174.033 188.596 174.033 189.206C174.033 189.792 174.543 190.172 175.34 190.172ZM175.123 191.057C173.84 191.057 172.99 190.319 172.99 189.2C172.99 188.116 173.822 187.477 175.357 187.383L177.127 187.278V186.75C177.127 185.965 176.611 185.532 175.68 185.532C174.947 185.532 174.402 185.907 174.279 186.504H173.301C173.33 185.438 174.367 184.624 175.691 184.624C177.186 184.624 178.146 185.42 178.146 186.663V190.999H177.18V189.903H177.156C176.799 190.606 176.008 191.057 175.123 191.057ZM179.5 190.999V184.682H180.461V185.708H180.484C180.672 185.045 181.275 184.624 182.014 184.624C182.137 184.624 182.318 184.641 182.406 184.665V185.672C182.324 185.637 182.055 185.602 181.879 185.602C181.059 185.602 180.52 186.2 180.52 187.09V190.999H179.5ZM188.781 191.057C187.006 191.057 185.869 189.797 185.869 187.84C185.869 185.877 187.006 184.624 188.781 184.624C190.557 184.624 191.693 185.877 191.693 187.84C191.693 189.797 190.557 191.057 188.781 191.057ZM188.781 190.149C189.959 190.149 190.656 189.288 190.656 187.84C190.656 186.387 189.959 185.532 188.781 185.532C187.604 185.532 186.906 186.393 186.906 187.84C186.906 189.288 187.609 190.149 188.781 190.149ZM192.766 190.999V184.682H193.727V185.708H193.75C194.148 184.993 194.834 184.624 195.812 184.624C197.201 184.624 198.062 185.514 198.062 186.95V190.999H197.043V187.125C197.043 186.094 196.504 185.532 195.508 185.532C194.471 185.532 193.785 186.247 193.785 187.331V190.999H192.766ZM202.832 193.29C202.703 193.29 202.51 193.272 202.387 193.249V192.387C202.504 192.411 202.668 192.422 202.803 192.422C203.389 192.422 203.705 192.141 203.963 191.379L204.086 191.004L201.748 184.682H202.832L204.602 189.961H204.625L206.395 184.682H207.467L204.994 191.385C204.455 192.85 203.951 193.29 202.832 193.29ZM210.648 185.52C209.658 185.52 208.943 186.241 208.873 187.307H212.348C212.324 186.235 211.645 185.52 210.648 185.52ZM212.324 189.194H213.332C213.156 190.278 212.061 191.057 210.713 191.057C208.938 191.057 207.818 189.821 207.818 187.864C207.818 185.907 208.943 184.624 210.666 184.624C212.354 184.624 213.408 185.813 213.408 187.723V188.122H208.873V188.18C208.873 189.381 209.611 190.161 210.736 190.161C211.527 190.161 212.143 189.786 212.324 189.194ZM216.543 190.172C217.574 190.172 218.33 189.504 218.33 188.596V188.086L216.678 188.192C215.729 188.25 215.236 188.596 215.236 189.206C215.236 189.792 215.746 190.172 216.543 190.172ZM216.326 191.057C215.043 191.057 214.193 190.319 214.193 189.2C214.193 188.116 215.025 187.477 216.561 187.383L218.33 187.278V186.75C218.33 185.965 217.814 185.532 216.883 185.532C216.15 185.532 215.605 185.907 215.482 186.504H214.504C214.533 185.438 215.57 184.624 216.895 184.624C218.389 184.624 219.35 185.42 219.35 186.663V190.999H218.383V189.903H218.359C218.002 190.606 217.211 191.057 216.326 191.057ZM220.703 190.999V184.682H221.664V185.708H221.688C221.875 185.045 222.479 184.624 223.217 184.624C223.34 184.624 223.521 184.641 223.609 184.665V185.672C223.527 185.637 223.258 185.602 223.082 185.602C222.262 185.602 221.723 186.2 221.723 187.09V190.999H220.703Z" fill="#7F7F7F"/>
<path d="M244.134 183.499C244.519 182.832 245.481 182.832 245.866 183.499L248.464 187.999C248.849 188.665 248.368 189.499 247.598 189.499H242.402C241.632 189.499 241.151 188.665 241.536 187.999L244.134 183.499Z" fill="#65D909"/>
<path d="M258.705 190.999V189.241H254.457V188.286C255.178 186.95 256.168 185.409 258.166 182.543H259.725V188.315H260.92V189.241H259.725V190.999H258.705ZM255.5 188.292V188.315H258.705V183.422H258.688C257.088 185.708 256.168 187.12 255.5 188.292ZM264.857 191.139C263.07 191.139 261.793 190.125 261.793 188.713C261.793 187.659 262.52 186.792 263.609 186.54V186.516C262.695 186.235 262.127 185.514 262.127 184.624C262.127 183.346 263.287 182.403 264.857 182.403C266.439 182.403 267.582 183.34 267.582 184.629C267.582 185.508 267.025 186.223 266.105 186.516V186.54C267.201 186.797 267.928 187.665 267.928 188.713C267.928 190.131 266.65 191.139 264.857 191.139ZM264.857 190.219C266.023 190.219 266.85 189.557 266.85 188.637C266.85 187.706 266.023 187.049 264.857 187.049C263.697 187.049 262.865 187.711 262.865 188.637C262.865 189.557 263.697 190.219 264.857 190.219ZM264.857 186.124C265.842 186.124 266.539 185.543 266.539 184.723C266.539 183.891 265.848 183.311 264.857 183.311C263.867 183.311 263.176 183.897 263.176 184.723C263.176 185.543 263.867 186.124 264.857 186.124ZM269.984 191.057C269.609 191.057 269.316 190.764 269.316 190.389C269.316 190.008 269.609 189.721 269.984 189.721C270.365 189.721 270.652 190.008 270.652 190.389C270.652 190.764 270.365 191.057 269.984 191.057ZM273.916 187.096V186.206H274.93C275.902 186.206 276.582 185.579 276.582 184.723C276.582 183.885 276.014 183.317 274.941 183.317C273.969 183.317 273.324 183.874 273.23 184.758H272.217C272.334 183.323 273.4 182.403 274.988 182.403C276.5 182.403 277.643 183.311 277.643 184.583C277.643 185.643 276.963 186.405 275.908 186.592V186.616C277.186 186.692 278.006 187.483 278.006 188.672C278.006 190.125 276.682 191.139 275.023 191.139C273.254 191.139 272.123 190.161 272.047 188.76H273.061C273.154 189.627 273.875 190.225 275.012 190.225C276.131 190.225 276.934 189.592 276.934 188.708C276.934 187.711 276.184 187.096 274.977 187.096H273.916ZM281.984 191.139C280.543 191.139 279.436 190.272 279.178 188.948H280.25C280.473 189.715 281.158 190.219 281.996 190.219C283.402 190.219 284.211 188.942 284.24 186.698H284.234C284.229 186.698 284.229 186.698 284.223 186.698C283.865 187.536 282.939 188.081 281.861 188.081C280.25 188.081 279.055 186.891 279.055 185.286C279.055 183.616 280.314 182.397 282.049 182.397C283.32 182.397 284.328 183.083 284.844 184.295C285.125 184.946 285.26 185.708 285.26 186.627C285.26 189.475 284.053 191.139 281.984 191.139ZM282.043 187.155C283.162 187.155 283.994 186.358 283.994 185.28C283.994 184.196 283.15 183.346 282.061 183.346C280.977 183.346 280.121 184.19 280.121 185.25C280.121 186.352 280.936 187.155 282.043 187.155ZM287.615 190.999H286.596L292.783 182.543H293.791L287.615 190.999ZM294.336 188.983C294.336 190.26 293.639 191.092 292.566 191.092C291.494 191.092 290.791 190.26 290.791 188.983C290.791 187.711 291.494 186.879 292.566 186.879C293.639 186.879 294.336 187.711 294.336 188.983ZM292.566 190.377C293.082 190.377 293.398 189.844 293.398 188.983C293.398 188.116 293.094 187.6 292.566 187.6C292.051 187.6 291.729 188.133 291.729 188.983C291.729 189.838 292.051 190.377 292.566 190.377ZM289.631 184.542C289.631 185.819 288.934 186.651 287.861 186.651C286.789 186.651 286.086 185.819 286.086 184.542C286.086 183.27 286.789 182.438 287.861 182.438C288.934 182.438 289.631 183.27 289.631 184.542ZM287.861 185.936C288.377 185.936 288.693 185.403 288.693 184.542C288.693 183.674 288.389 183.159 287.861 183.159C287.346 183.159 287.023 183.692 287.023 184.542C287.023 185.397 287.346 185.936 287.861 185.936Z" fill="#65D909"/>
<path d="M20.9922 154.725H25.5391C27.7734 154.725 29.3281 156.249 29.3281 158.499C29.3281 160.749 27.7344 162.272 25.4531 162.272H23.0078V165.999H20.9922V154.725ZM23.0078 156.374V160.647H25C26.4453 160.647 27.2812 159.866 27.2812 158.499C27.2812 157.147 26.4531 156.374 25.0078 156.374H23.0078ZM33.1172 164.6C34.2969 164.6 35.1953 163.866 35.1953 162.827V162.178L33.2422 162.303C32.1797 162.374 31.6172 162.78 31.6172 163.475C31.6172 164.163 32.2109 164.6 33.1172 164.6ZM32.5469 166.092C30.8672 166.092 29.6641 165.069 29.6641 163.553C29.6641 162.03 30.8281 161.163 32.9766 161.03L35.1953 160.897V160.272C35.1953 159.366 34.5859 158.874 33.5391 158.874C32.6562 158.874 32.0234 159.334 31.8906 160.022H30.0938C30.1406 158.459 31.5938 157.342 33.6016 157.342C35.7344 157.342 37.1172 158.452 37.1172 160.147V165.999H35.25V164.624H35.2031C34.7344 165.538 33.6797 166.092 32.5469 166.092ZM39.6719 169.108C39.5547 169.108 39.0234 169.092 38.9062 169.069V167.522C39.0156 167.545 39.3125 167.553 39.4375 167.553C40.2656 167.553 40.7266 167.233 40.9688 166.428L41.0781 166.03L38.0234 157.459H40.1406L42.1875 164.319H42.2266L44.2656 157.459H46.3203L43.2266 166.295C42.5 168.397 41.5859 169.108 39.6719 169.108ZM47.2812 165.999V157.459H49.1484V158.959H49.1875C49.5625 157.967 50.4922 157.358 51.6172 157.358C52.8203 157.358 53.6875 157.967 54.0078 159.053H54.0469C54.4609 158.006 55.4844 157.358 56.7109 157.358C58.3906 157.358 59.5 158.483 59.5 160.186V165.999H57.5547V160.663C57.5547 159.6 56.9922 158.999 55.9922 158.999C55.0156 158.999 54.3359 159.725 54.3359 160.764V165.999H52.4453V160.553C52.4453 159.592 51.8516 158.999 50.9062 158.999C49.9219 158.999 49.2266 159.756 49.2266 160.811V165.999H47.2812ZM64.7812 158.858C63.6406 158.858 62.8125 159.686 62.7266 160.905H66.7734C66.7344 159.67 65.9375 158.858 64.7812 158.858ZM66.7812 163.459H68.6094C68.3594 165.038 66.8438 166.124 64.8516 166.124C62.3281 166.124 60.7656 164.452 60.7656 161.764C60.7656 159.077 62.3359 157.342 64.7812 157.342C67.1719 157.342 68.6875 158.975 68.6875 161.561V162.202H62.7109V162.319C62.7109 163.694 63.5859 164.608 64.8906 164.608C65.8281 164.608 66.5547 164.163 66.7812 163.459ZM70 165.999V157.459H71.8672V158.944H71.9062C72.4141 157.905 73.3516 157.358 74.6641 157.358C76.5547 157.358 77.7109 158.553 77.7109 160.53V165.999H75.7656V160.913C75.7656 159.694 75.1094 159.006 73.9375 159.006C72.7422 159.006 71.9453 159.85 71.9453 161.1V165.999H70ZM79.875 155.553H81.8203V157.459H83.4375V158.967H81.8203V163.467C81.8203 164.17 82.1484 164.506 82.8516 164.506C83.0391 164.506 83.3047 164.483 83.4297 164.467V165.959C83.2188 166.006 82.8203 166.038 82.4062 166.038C80.5938 166.038 79.875 165.381 79.875 163.733V158.967H78.7109V157.459H79.875V155.553ZM84.6641 159.928C84.6641 158.381 86.0391 157.342 88.0938 157.342C90.0625 157.342 91.4375 158.405 91.4766 159.952H89.6641C89.6016 159.233 88.9844 158.78 88.0547 158.78C87.1484 158.78 86.5547 159.194 86.5547 159.819C86.5547 160.295 86.9531 160.624 87.7969 160.819L89.2969 161.163C91.0156 161.561 91.6719 162.209 91.6719 163.467C91.6719 165.053 90.1875 166.124 88.0469 166.124C85.9531 166.124 84.5703 165.069 84.4453 163.483H86.3594C86.4766 164.256 87.1094 164.686 88.125 164.686C89.1172 164.686 89.7344 164.288 89.7344 163.655C89.7344 163.155 89.4219 162.889 88.5703 162.686L87.0234 162.311C85.4609 161.944 84.6641 161.139 84.6641 159.928ZM100.297 166.124C97.7812 166.124 96.1875 164.452 96.1875 161.725C96.1875 159.03 97.7969 157.342 100.297 157.342C102.812 157.342 104.414 159.022 104.414 161.725C104.414 164.452 102.828 166.124 100.297 166.124ZM100.297 164.569C101.641 164.569 102.438 163.522 102.438 161.733C102.438 159.944 101.633 158.897 100.297 158.897C98.9688 158.897 98.1641 159.952 98.1641 161.733C98.1641 163.522 98.9688 164.569 100.297 164.569ZM113.391 157.459V165.999H111.523V164.506H111.477C111.008 165.545 110.055 166.108 108.758 166.108C106.898 166.108 105.68 164.905 105.68 162.936V157.459H107.625V162.545C107.625 163.788 108.305 164.459 109.453 164.459C110.641 164.459 111.445 163.624 111.445 162.358V157.459H113.391ZM115.594 155.553H117.539V157.459H119.156V158.967H117.539V163.467C117.539 164.17 117.867 164.506 118.57 164.506C118.758 164.506 119.023 164.483 119.148 164.467V165.959C118.938 166.006 118.539 166.038 118.125 166.038C116.312 166.038 115.594 165.381 115.594 163.733V158.967H114.43V157.459H115.594V155.553Z" fill="black"/>
<path d="M26.9434 125V122.741H20.6328V120.482C21.7402 118.373 23.1201 116.149 25.7217 112.317H29.4658V120.614H31.1182V122.741H29.4658V125H26.9434ZM22.9619 120.623V120.693H26.9961V114.198H26.9434C25.0977 116.905 23.9902 118.637 22.9619 120.623ZM37.4463 125.281C34.7217 125.281 32.7617 123.664 32.6826 121.37H35.1348C35.2842 122.442 36.2334 123.181 37.4639 123.181C38.8525 123.181 39.8105 122.214 39.8105 120.834C39.8105 119.428 38.8525 118.443 37.4814 118.443C36.5234 118.443 35.6973 118.883 35.2578 119.612H32.8848L33.5088 112.317H41.5771V114.427H35.5918L35.3018 117.898H35.3545C35.873 117.046 36.8838 116.51 38.1758 116.51C40.6016 116.51 42.3418 118.294 42.3418 120.764C42.3418 123.453 40.3555 125.281 37.4463 125.281ZM45.6465 127.382H43.7041L44.4336 122.627H46.8418L45.6465 127.382ZM53.3721 125.281C50.1816 125.281 48.2393 122.741 48.2393 118.637C48.2393 114.541 50.1992 112.027 53.3721 112.027C56.5449 112.027 58.4961 114.532 58.4961 118.628C58.4961 122.724 56.5625 125.281 53.3721 125.281ZM53.3721 123.154C54.8838 123.154 55.7979 121.528 55.7979 118.637C55.7979 115.771 54.875 114.154 53.3721 114.154C51.8779 114.154 50.9375 115.78 50.9375 118.637C50.9375 121.52 51.8604 123.154 53.3721 123.154ZM65.1055 125.281C62.0293 125.281 59.9639 123.761 59.9639 121.563C59.9639 119.894 61.1768 118.602 62.9434 118.312V118.259C61.4668 117.916 60.4736 116.782 60.4736 115.385C60.4736 113.451 62.3896 112.036 65.1055 112.036C67.8301 112.036 69.7285 113.442 69.7285 115.394C69.7285 116.773 68.7441 117.907 67.2676 118.259V118.312C69.043 118.61 70.2471 119.902 70.2471 121.572C70.2471 123.77 68.1553 125.281 65.1055 125.281ZM65.1055 123.348C66.5029 123.348 67.4697 122.513 67.4697 121.37C67.4697 120.228 66.5029 119.393 65.1055 119.393C63.708 119.393 62.7324 120.228 62.7324 121.37C62.7324 122.513 63.708 123.348 65.1055 123.348ZM65.1055 117.459C66.2744 117.459 67.1094 116.721 67.1094 115.71C67.1094 114.69 66.2744 113.952 65.1055 113.952C63.9277 113.952 63.1016 114.699 63.1016 115.71C63.1016 116.721 63.9277 117.459 65.1055 117.459ZM72.5322 125L77.9902 114.479V114.427H71.5391V112.317H80.6094V114.453L75.3184 125H72.5322Z" fill="#65D909"/>
<path d="M24.751 99H23.5205V90.2432H20.3418V89.1357H27.9297V90.2432H24.751V99ZM30.6777 99.0684C28.6064 99.0684 27.2803 97.5986 27.2803 95.3154C27.2803 93.0254 28.6064 91.5625 30.6777 91.5625C32.749 91.5625 34.0752 93.0254 34.0752 95.3154C34.0752 97.5986 32.749 99.0684 30.6777 99.0684ZM30.6777 98.0088C32.0518 98.0088 32.8652 97.0039 32.8652 95.3154C32.8652 93.6201 32.0518 92.6221 30.6777 92.6221C29.3037 92.6221 28.4902 93.627 28.4902 95.3154C28.4902 97.0039 29.3105 98.0088 30.6777 98.0088ZM38.1221 99.0684C36.2695 99.0684 34.9639 97.5645 34.9639 95.3154C34.9639 93.0664 36.2627 91.5625 38.0947 91.5625C39.1475 91.5625 39.9951 92.0205 40.4463 92.8271H40.4736V88.7051H41.6631V99H40.5283V97.7559H40.5078C40.0293 98.6035 39.1885 99.0684 38.1221 99.0684ZM38.334 92.6221C37.042 92.6221 36.1807 93.6885 36.1807 95.3154C36.1807 96.9492 37.042 98.0088 38.334 98.0088C39.6123 98.0088 40.4805 96.9219 40.4805 95.3154C40.4805 93.7158 39.6123 92.6221 38.334 92.6221ZM45.7578 98.0361C46.9609 98.0361 47.8428 97.2568 47.8428 96.1973V95.6025L45.915 95.7256C44.8076 95.7939 44.2334 96.1973 44.2334 96.9082C44.2334 97.5918 44.8281 98.0361 45.7578 98.0361ZM45.5049 99.0684C44.0078 99.0684 43.0166 98.207 43.0166 96.9014C43.0166 95.6367 43.9873 94.8916 45.7783 94.7822L47.8428 94.6592V94.0439C47.8428 93.1279 47.2412 92.6221 46.1543 92.6221C45.2998 92.6221 44.6641 93.0596 44.5205 93.7568H43.3789C43.4131 92.5127 44.623 91.5625 46.168 91.5625C47.9111 91.5625 49.0322 92.4922 49.0322 93.9414V99H47.9043V97.7217H47.877C47.46 98.542 46.5371 99.0684 45.5049 99.0684ZM51.2402 101.673C51.0898 101.673 50.8643 101.652 50.7207 101.625V100.62C50.8574 100.647 51.0488 100.661 51.2061 100.661C51.8896 100.661 52.2588 100.333 52.5596 99.4443L52.7031 99.0068L49.9756 91.6309H51.2402L53.3047 97.79H53.332L55.3965 91.6309H56.6475L53.7627 99.4512C53.1338 101.16 52.5459 101.673 51.2402 101.673Z" fill="#7F7F7F"/>
<path d="M295 80.6626V135.999H90.9678V102.558C92.8871 104.876 95.9032 108.202 100.105 111.678C102.315 113.506 103.444 114.435 104.944 115.064C111.274 117.711 118.556 113.786 120.677 112.517C129.29 107.363 129.185 100.391 137.548 97.8434C138.121 97.6736 139.936 97.4739 143.565 97.0943C158.815 95.4661 159.992 96.3751 164.742 94.7769C170.008 93.0088 174.04 90.0521 176.444 88.2741C181.081 84.8679 182.669 82.5105 187.129 80.7425C190.895 79.2442 194.137 79.1942 196.153 79.1843C203.694 79.1243 206.242 81.9112 219.04 86.1465C230.677 89.9922 233.669 89.3629 235.734 88.2741C238.065 87.0555 238.266 85.7469 242.411 83.1498C244.363 81.9312 247.629 79.8835 251.661 79.1743C254.589 78.6548 257.565 79.3341 263.395 80.7126C277.129 83.9689 277.411 84.0588 278.452 84.1487C282.226 84.4684 287.831 84.1387 295 80.6626Z" fill="url(#paint1_linear_16_2623)" fill-opacity="0.3"/>
<path d="M90.9678 102.558C92.8871 104.876 95.9032 108.202 100.105 111.678C102.315 113.506 103.444 114.435 104.944 115.064C111.274 117.711 118.556 113.786 120.677 112.517C129.29 107.363 129.185 100.391 137.548 97.8434C138.121 97.6736 139.936 97.4739 143.565 97.0943C158.815 95.4661 159.992 96.3751 164.742 94.7769C170.008 93.0088 174.04 90.0521 176.444 88.2741C181.081 84.8679 182.669 82.5105 187.129 80.7425C190.895 79.2442 194.137 79.1942 196.153 79.1843C203.694 79.1243 206.242 81.9112 219.04 86.1465C230.677 89.9922 233.669 89.3629 235.734 88.2741C238.065 87.0555 238.266 85.7469 242.411 83.1498C244.363 81.9312 247.629 79.8835 251.661 79.1743C254.589 78.6548 257.565 79.3341 263.395 80.7126C277.129 83.9689 277.411 84.0588 278.452 84.1487C282.226 84.4684 287.831 84.1487 295 80.6626" stroke="#65D909" stroke-width="2" stroke-miterlimit="10"/>
<path d="M24.1191 61H20.8203V52.5449H24.1309C25.5781 52.5449 26.5566 53.3887 26.5566 54.6543C26.5566 55.5332 25.9121 56.3535 25.0977 56.5V56.5469C26.2461 56.6934 26.9844 57.502 26.9844 58.627C26.9844 60.1152 25.918 61 24.1191 61ZM21.875 53.4766V56.1895H23.5625C24.8105 56.1895 25.4902 55.6914 25.4902 54.7773C25.4902 53.9395 24.916 53.4766 23.8906 53.4766H21.875ZM21.875 60.0684H23.9609C25.2324 60.0684 25.9004 59.5527 25.9004 58.5742C25.9004 57.5957 25.209 57.0977 23.8613 57.0977H21.875V60.0684ZM28.1094 61V52.1758H29.1289V61H28.1094ZM33.1719 61.0586C31.3965 61.0586 30.2598 59.7988 30.2598 57.8418C30.2598 55.8789 31.3965 54.625 33.1719 54.625C34.9473 54.625 36.084 55.8789 36.084 57.8418C36.084 59.7988 34.9473 61.0586 33.1719 61.0586ZM33.1719 60.1504C34.3496 60.1504 35.0469 59.2891 35.0469 57.8418C35.0469 56.3887 34.3496 55.5332 33.1719 55.5332C31.9941 55.5332 31.2969 56.3945 31.2969 57.8418C31.2969 59.2891 32 60.1504 33.1719 60.1504ZM42.377 56.7402H41.375C41.2461 56.0664 40.6836 55.5332 39.7344 55.5332C38.6328 55.5332 37.8828 56.4473 37.8828 57.8418C37.8828 59.2773 38.6445 60.1504 39.7461 60.1504C40.625 60.1504 41.2109 59.7402 41.3867 58.9785H42.3887C42.2188 60.209 41.1816 61.0586 39.7402 61.0586C38.0059 61.0586 36.8457 59.8281 36.8457 57.8418C36.8457 55.9023 38 54.625 39.7285 54.625C41.293 54.625 42.248 55.6328 42.377 56.7402ZM44.4453 57.5078L47.2754 54.6836H48.5176L45.7578 57.4141L48.5996 61H47.416L45.043 58.041L44.4453 58.6035V61H43.4258V52.1758H44.4453V57.5078ZM51.6055 55.5215C50.6152 55.5215 49.9004 56.2422 49.8301 57.3086H53.3047C53.2812 56.2363 52.6016 55.5215 51.6055 55.5215ZM53.2812 59.1953H54.2891C54.1133 60.2793 53.0176 61.0586 51.6699 61.0586C49.8945 61.0586 48.7754 59.8223 48.7754 57.8652C48.7754 55.9082 49.9004 54.625 51.623 54.625C53.3105 54.625 54.3652 55.8145 54.3652 57.7246V58.123H49.8301V58.1816C49.8301 59.3828 50.5684 60.1621 51.6934 60.1621C52.4844 60.1621 53.0996 59.7871 53.2812 59.1953ZM57.834 61.0586C56.2461 61.0586 55.127 59.7695 55.127 57.8418C55.127 55.9141 56.2402 54.625 57.8105 54.625C58.7129 54.625 59.4395 55.0176 59.8262 55.709H59.8496V52.1758H60.8691V61H59.8965V59.9336H59.8789C59.4688 60.6602 58.748 61.0586 57.834 61.0586ZM58.0156 55.5332C56.9082 55.5332 56.1699 56.4473 56.1699 57.8418C56.1699 59.2422 56.9082 60.1504 58.0156 60.1504C59.1113 60.1504 59.8555 59.2188 59.8555 57.8418C59.8555 56.4707 59.1113 55.5332 58.0156 55.5332Z" fill="#7F7F7F"/>
<path d="M82.134 60.5C82.5189 61.1667 83.4811 61.1667 83.866 60.5L86.4641 56C86.849 55.3333 86.3679 54.5 85.5981 54.5H80.4019C79.6321 54.5 79.151 55.3333 79.5359 56L82.134 60.5Z" fill="#FF2525"/>
<path d="M94.8418 61V53.6641H94.8184L92.5801 55.2754V54.1621L94.8301 52.5449H95.8613V61H94.8418ZM98.5508 61.0586C98.1758 61.0586 97.8828 60.7656 97.8828 60.3906C97.8828 60.0098 98.1758 59.7227 98.5508 59.7227C98.9316 59.7227 99.2188 60.0098 99.2188 60.3906C99.2188 60.7656 98.9316 61.0586 98.5508 61.0586ZM100.707 54.9824C100.707 53.5059 101.902 52.4043 103.496 52.4043C105.008 52.4043 106.197 53.4297 106.197 54.7246C106.197 55.668 105.77 56.3711 104.357 57.8301L102.219 60.0391V60.0625H106.338V61H100.76V60.2734L103.736 57.1387C104.873 55.9434 105.143 55.4922 105.143 54.7891C105.143 53.9746 104.398 53.3242 103.467 53.3242C102.477 53.3242 101.727 54.0391 101.727 54.9824V54.9883H100.707V54.9824ZM110.463 61.1406C108.846 61.1406 107.65 60.1328 107.562 58.6914H108.6C108.693 59.5938 109.461 60.2148 110.475 60.2148C111.623 60.2148 112.42 59.418 112.42 58.2812C112.42 57.1445 111.617 56.3301 110.492 56.3301C109.701 56.3301 109.027 56.6875 108.682 57.2793H107.691L108.154 52.5449H112.994V53.4824H109.021L108.764 56.2363H108.787C109.168 55.7266 109.871 55.4219 110.68 55.4219C112.303 55.4219 113.475 56.6113 113.475 58.252C113.475 59.9512 112.227 61.1406 110.463 61.1406ZM115.713 61H114.693L120.881 52.5449H121.889L115.713 61ZM122.434 58.9844C122.434 60.2617 121.736 61.0938 120.664 61.0938C119.592 61.0938 118.889 60.2617 118.889 58.9844C118.889 57.7129 119.592 56.8809 120.664 56.8809C121.736 56.8809 122.434 57.7129 122.434 58.9844ZM120.664 60.3789C121.18 60.3789 121.496 59.8457 121.496 58.9844C121.496 58.1172 121.191 57.6016 120.664 57.6016C120.148 57.6016 119.826 58.1348 119.826 58.9844C119.826 59.8398 120.148 60.3789 120.664 60.3789ZM117.729 54.543C117.729 55.8203 117.031 56.6523 115.959 56.6523C114.887 56.6523 114.184 55.8203 114.184 54.543C114.184 53.2715 114.887 52.4395 115.959 52.4395C117.031 52.4395 117.729 53.2715 117.729 54.543ZM115.959 55.9375C116.475 55.9375 116.791 55.4043 116.791 54.543C116.791 53.6758 116.486 53.1602 115.959 53.1602C115.443 53.1602 115.121 53.6934 115.121 54.543C115.121 55.3984 115.443 55.9375 115.959 55.9375Z" fill="#FF2525"/>
<path d="M164.201 61H163.146V57.3613L160.146 52.5449H161.348L163.656 56.3418H163.691L166 52.5449H167.201L164.201 57.3613V61ZM169.445 55.5215C168.455 55.5215 167.74 56.2422 167.67 57.3086H171.145C171.121 56.2363 170.441 55.5215 169.445 55.5215ZM171.121 59.1953H172.129C171.953 60.2793 170.857 61.0586 169.51 61.0586C167.734 61.0586 166.615 59.8223 166.615 57.8652C166.615 55.9082 167.74 54.625 169.463 54.625C171.15 54.625 172.205 55.8145 172.205 57.7246V58.123H167.67V58.1816C167.67 59.3828 168.408 60.1621 169.533 60.1621C170.324 60.1621 170.939 59.7871 171.121 59.1953ZM175.34 60.1738C176.371 60.1738 177.127 59.5059 177.127 58.5977V58.0879L175.475 58.1934C174.525 58.252 174.033 58.5977 174.033 59.207C174.033 59.793 174.543 60.1738 175.34 60.1738ZM175.123 61.0586C173.84 61.0586 172.99 60.3203 172.99 59.2012C172.99 58.1172 173.822 57.4785 175.357 57.3848L177.127 57.2793V56.752C177.127 55.9668 176.611 55.5332 175.68 55.5332C174.947 55.5332 174.402 55.9082 174.279 56.5059H173.301C173.33 55.4395 174.367 54.625 175.691 54.625C177.186 54.625 178.146 55.4219 178.146 56.6641V61H177.18V59.9043H177.156C176.799 60.6074 176.008 61.0586 175.123 61.0586ZM179.5 61V54.6836H180.461V55.709H180.484C180.672 55.0469 181.275 54.625 182.014 54.625C182.137 54.625 182.318 54.6426 182.406 54.666V55.6738C182.324 55.6387 182.055 55.6035 181.879 55.6035C181.059 55.6035 180.52 56.2012 180.52 57.0918V61H179.5ZM188.781 61.0586C187.006 61.0586 185.869 59.7988 185.869 57.8418C185.869 55.8789 187.006 54.625 188.781 54.625C190.557 54.625 191.693 55.8789 191.693 57.8418C191.693 59.7988 190.557 61.0586 188.781 61.0586ZM188.781 60.1504C189.959 60.1504 190.656 59.2891 190.656 57.8418C190.656 56.3887 189.959 55.5332 188.781 55.5332C187.604 55.5332 186.906 56.3945 186.906 57.8418C186.906 59.2891 187.609 60.1504 188.781 60.1504ZM192.766 61V54.6836H193.727V55.709H193.75C194.148 54.9941 194.834 54.625 195.812 54.625C197.201 54.625 198.062 55.5156 198.062 56.9512V61H197.043V57.127C197.043 56.0957 196.504 55.5332 195.508 55.5332C194.471 55.5332 193.785 56.248 193.785 57.332V61H192.766ZM202.832 63.291C202.703 63.291 202.51 63.2734 202.387 63.25V62.3887C202.504 62.4121 202.668 62.4238 202.803 62.4238C203.389 62.4238 203.705 62.1426 203.963 61.3809L204.086 61.0059L201.748 54.6836H202.832L204.602 59.9629H204.625L206.395 54.6836H207.467L204.994 61.3867C204.455 62.8516 203.951 63.291 202.832 63.291ZM210.648 55.5215C209.658 55.5215 208.943 56.2422 208.873 57.3086H212.348C212.324 56.2363 211.645 55.5215 210.648 55.5215ZM212.324 59.1953H213.332C213.156 60.2793 212.061 61.0586 210.713 61.0586C208.938 61.0586 207.818 59.8223 207.818 57.8652C207.818 55.9082 208.943 54.625 210.666 54.625C212.354 54.625 213.408 55.8145 213.408 57.7246V58.123H208.873V58.1816C208.873 59.3828 209.611 60.1621 210.736 60.1621C211.527 60.1621 212.143 59.7871 212.324 59.1953ZM216.543 60.1738C217.574 60.1738 218.33 59.5059 218.33 58.5977V58.0879L216.678 58.1934C215.729 58.252 215.236 58.5977 215.236 59.207C215.236 59.793 215.746 60.1738 216.543 60.1738ZM216.326 61.0586C215.043 61.0586 214.193 60.3203 214.193 59.2012C214.193 58.1172 215.025 57.4785 216.561 57.3848L218.33 57.2793V56.752C218.33 55.9668 217.814 55.5332 216.883 55.5332C216.15 55.5332 215.605 55.9082 215.482 56.5059H214.504C214.533 55.4395 215.57 54.625 216.895 54.625C218.389 54.625 219.35 55.4219 219.35 56.6641V61H218.383V59.9043H218.359C218.002 60.6074 217.211 61.0586 216.326 61.0586ZM220.703 61V54.6836H221.664V55.709H221.688C221.875 55.0469 222.479 54.625 223.217 54.625C223.34 54.625 223.521 54.6426 223.609 54.666V55.6738C223.527 55.6387 223.258 55.6035 223.082 55.6035C222.262 55.6035 221.723 56.2012 221.723 57.0918V61H220.703Z" fill="#7F7F7F"/>
<path d="M244.134 53.5C244.519 52.8333 245.481 52.8333 245.866 53.5L248.464 58C248.849 58.6667 248.368 59.5 247.598 59.5H242.402C241.632 59.5 241.151 58.6667 241.536 58L244.134 53.5Z" fill="#65D909"/>
<path d="M257.744 61.1465C256.479 61.1465 255.471 60.4609 254.949 59.2422C254.668 58.5918 254.533 57.8301 254.533 56.916C254.533 54.0684 255.746 52.3984 257.814 52.3984C259.25 52.3984 260.352 53.2598 260.621 54.5898H259.549C259.32 53.8223 258.641 53.3301 257.803 53.3301C256.391 53.3301 255.588 54.584 255.553 56.834H255.57C255.951 56.0078 256.883 55.4629 257.932 55.4629C259.543 55.4629 260.738 56.6523 260.738 58.2578C260.738 59.9277 259.479 61.1465 257.744 61.1465ZM257.732 60.209C258.811 60.209 259.666 59.3594 259.666 58.293C259.666 57.1855 258.869 56.3887 257.75 56.3887C256.631 56.3887 255.805 57.1855 255.805 58.2637C255.805 59.3477 256.648 60.209 257.732 60.209ZM263.592 57.0977V56.207H264.605C265.578 56.207 266.258 55.5801 266.258 54.7246C266.258 53.8867 265.689 53.3184 264.617 53.3184C263.645 53.3184 263 53.875 262.906 54.7598H261.893C262.01 53.3242 263.076 52.4043 264.664 52.4043C266.176 52.4043 267.318 53.3125 267.318 54.584C267.318 55.6445 266.639 56.4062 265.584 56.5938V56.6172C266.861 56.6934 267.682 57.4844 267.682 58.6738C267.682 60.127 266.357 61.1406 264.699 61.1406C262.93 61.1406 261.799 60.1621 261.723 58.7617H262.736C262.83 59.6289 263.551 60.2266 264.688 60.2266C265.807 60.2266 266.609 59.5938 266.609 58.709C266.609 57.7129 265.859 57.0977 264.652 57.0977H263.592ZM269.809 61.0586C269.434 61.0586 269.141 60.7656 269.141 60.3906C269.141 60.0098 269.434 59.7227 269.809 59.7227C270.189 59.7227 270.477 60.0098 270.477 60.3906C270.477 60.7656 270.189 61.0586 269.809 61.0586ZM274.924 61.1406C273.137 61.1406 271.859 60.127 271.859 58.7148C271.859 57.6602 272.586 56.793 273.676 56.541V56.5176C272.762 56.2363 272.193 55.5156 272.193 54.625C272.193 53.3477 273.354 52.4043 274.924 52.4043C276.506 52.4043 277.648 53.3418 277.648 54.6309C277.648 55.5098 277.092 56.2246 276.172 56.5176V56.541C277.268 56.7988 277.994 57.666 277.994 58.7148C277.994 60.1328 276.717 61.1406 274.924 61.1406ZM274.924 60.2207C276.09 60.2207 276.916 59.5586 276.916 58.6387C276.916 57.707 276.09 57.0508 274.924 57.0508C273.764 57.0508 272.932 57.7129 272.932 58.6387C272.932 59.5586 273.764 60.2207 274.924 60.2207ZM274.924 56.125C275.908 56.125 276.605 55.5449 276.605 54.7246C276.605 53.8926 275.914 53.3125 274.924 53.3125C273.934 53.3125 273.242 53.8984 273.242 54.7246C273.242 55.5449 273.934 56.125 274.924 56.125ZM279.699 61L283.525 53.5059V53.4824H278.973V52.5449H284.568V53.5234L280.807 61H279.699ZM286.912 61H285.893L292.08 52.5449H293.088L286.912 61ZM293.633 58.9844C293.633 60.2617 292.936 61.0938 291.863 61.0938C290.791 61.0938 290.088 60.2617 290.088 58.9844C290.088 57.7129 290.791 56.8809 291.863 56.8809C292.936 56.8809 293.633 57.7129 293.633 58.9844ZM291.863 60.3789C292.379 60.3789 292.695 59.8457 292.695 58.9844C292.695 58.1172 292.391 57.6016 291.863 57.6016C291.348 57.6016 291.025 58.1348 291.025 58.9844C291.025 59.8398 291.348 60.3789 291.863 60.3789ZM288.928 54.543C288.928 55.8203 288.23 56.6523 287.158 56.6523C286.086 56.6523 285.383 55.8203 285.383 54.543C285.383 53.2715 286.086 52.4395 287.158 52.4395C288.23 52.4395 288.928 53.2715 288.928 54.543ZM287.158 55.9375C287.674 55.9375 287.99 55.4043 287.99 54.543C287.99 53.6758 287.686 53.1602 287.158 53.1602C286.643 53.1602 286.32 53.6934 286.32 54.543C286.32 55.3984 286.643 55.9375 287.158 55.9375Z" fill="#65D909"/>
<path d="M20.9922 24.7266H25.5391C27.7734 24.7266 29.3281 26.25 29.3281 28.5C29.3281 30.75 27.7344 32.2734 25.4531 32.2734H23.0078V36H20.9922V24.7266ZM23.0078 26.375V30.6484H25C26.4453 30.6484 27.2812 29.8672 27.2812 28.5C27.2812 27.1484 26.4531 26.375 25.0078 26.375H23.0078ZM33.1172 34.6016C34.2969 34.6016 35.1953 33.8672 35.1953 32.8281V32.1797L33.2422 32.3047C32.1797 32.375 31.6172 32.7812 31.6172 33.4766C31.6172 34.1641 32.2109 34.6016 33.1172 34.6016ZM32.5469 36.0938C30.8672 36.0938 29.6641 35.0703 29.6641 33.5547C29.6641 32.0312 30.8281 31.1641 32.9766 31.0312L35.1953 30.8984V30.2734C35.1953 29.3672 34.5859 28.875 33.5391 28.875C32.6562 28.875 32.0234 29.3359 31.8906 30.0234H30.0938C30.1406 28.4609 31.5938 27.3438 33.6016 27.3438C35.7344 27.3438 37.1172 28.4531 37.1172 30.1484V36H35.25V34.625H35.2031C34.7344 35.5391 33.6797 36.0938 32.5469 36.0938ZM39.6719 39.1094C39.5547 39.1094 39.0234 39.0938 38.9062 39.0703V37.5234C39.0156 37.5469 39.3125 37.5547 39.4375 37.5547C40.2656 37.5547 40.7266 37.2344 40.9688 36.4297L41.0781 36.0312L38.0234 27.4609H40.1406L42.1875 34.3203H42.2266L44.2656 27.4609H46.3203L43.2266 36.2969C42.5 38.3984 41.5859 39.1094 39.6719 39.1094ZM47.2812 36V27.4609H49.1484V28.9609H49.1875C49.5625 27.9688 50.4922 27.3594 51.6172 27.3594C52.8203 27.3594 53.6875 27.9688 54.0078 29.0547H54.0469C54.4609 28.0078 55.4844 27.3594 56.7109 27.3594C58.3906 27.3594 59.5 28.4844 59.5 30.1875V36H57.5547V30.6641C57.5547 29.6016 56.9922 29 55.9922 29C55.0156 29 54.3359 29.7266 54.3359 30.7656V36H52.4453V30.5547C52.4453 29.5938 51.8516 29 50.9062 29C49.9219 29 49.2266 29.7578 49.2266 30.8125V36H47.2812ZM64.7812 28.8594C63.6406 28.8594 62.8125 29.6875 62.7266 30.9062H66.7734C66.7344 29.6719 65.9375 28.8594 64.7812 28.8594ZM66.7812 33.4609H68.6094C68.3594 35.0391 66.8438 36.125 64.8516 36.125C62.3281 36.125 60.7656 34.4531 60.7656 31.7656C60.7656 29.0781 62.3359 27.3438 64.7812 27.3438C67.1719 27.3438 68.6875 28.9766 68.6875 31.5625V32.2031H62.7109V32.3203C62.7109 33.6953 63.5859 34.6094 64.8906 34.6094C65.8281 34.6094 66.5547 34.1641 66.7812 33.4609ZM70 36V27.4609H71.8672V28.9453H71.9062C72.4141 27.9062 73.3516 27.3594 74.6641 27.3594C76.5547 27.3594 77.7109 28.5547 77.7109 30.5312V36H75.7656V30.9141C75.7656 29.6953 75.1094 29.0078 73.9375 29.0078C72.7422 29.0078 71.9453 29.8516 71.9453 31.1016V36H70ZM79.875 25.5547H81.8203V27.4609H83.4375V28.9688H81.8203V33.4688C81.8203 34.1719 82.1484 34.5078 82.8516 34.5078C83.0391 34.5078 83.3047 34.4844 83.4297 34.4688V35.9609C83.2188 36.0078 82.8203 36.0391 82.4062 36.0391C80.5938 36.0391 79.875 35.3828 79.875 33.7344V28.9688H78.7109V27.4609H79.875V25.5547ZM84.6641 29.9297C84.6641 28.3828 86.0391 27.3438 88.0938 27.3438C90.0625 27.3438 91.4375 28.4062 91.4766 29.9531H89.6641C89.6016 29.2344 88.9844 28.7812 88.0547 28.7812C87.1484 28.7812 86.5547 29.1953 86.5547 29.8203C86.5547 30.2969 86.9531 30.625 87.7969 30.8203L89.2969 31.1641C91.0156 31.5625 91.6719 32.2109 91.6719 33.4688C91.6719 35.0547 90.1875 36.125 88.0469 36.125C85.9531 36.125 84.5703 35.0703 84.4453 33.4844H86.3594C86.4766 34.2578 87.1094 34.6875 88.125 34.6875C89.1172 34.6875 89.7344 34.2891 89.7344 33.6562C89.7344 33.1562 89.4219 32.8906 88.5703 32.6875L87.0234 32.3125C85.4609 31.9453 84.6641 31.1406 84.6641 29.9297ZM96.6016 36V27.4609H98.5469V36H96.6016ZM97.5703 26.375C96.9688 26.375 96.4766 25.9062 96.4766 25.3047C96.4766 24.6953 96.9688 24.2344 97.5703 24.2344C98.1797 24.2344 98.6641 24.6953 98.6641 25.3047C98.6641 25.9062 98.1797 26.375 97.5703 26.375ZM100.266 36V27.4609H102.133V28.9453H102.172C102.68 27.9062 103.617 27.3594 104.93 27.3594C106.82 27.3594 107.977 28.5547 107.977 30.5312V36H106.031V30.9141C106.031 29.6953 105.375 29.0078 104.203 29.0078C103.008 29.0078 102.211 29.8516 102.211 31.1016V36H100.266Z" fill="black"/>
<defs>
<linearGradient id="paint0_linear_16_2623" x1="192.355" y1="208.999" x2="192.355" y2="269.033" gradientUnits="userSpaceOnUse">
<stop stop-color="#555AFE"/>
<stop offset="1" stop-color="white" stop-opacity="0"/>
</linearGradient>
<linearGradient id="paint1_linear_16_2623" x1="192.984" y1="79" x2="192.984" y2="155.999" gradientUnits="userSpaceOnUse">
<stop stop-color="#65D909"/>
<stop offset="1" stop-color="white" stop-opacity="0"/>
</linearGradient>
</defs>
</svg>
