<svg width="188" height="26" viewBox="0 0 188 26" fill="none" xmlns="http://www.w3.org/2000/svg">
<g clip-path="url(#clip0_16_2601)">
<path d="M18.2434 22.1599V26.0001C17.85 25.8658 8.49126 22.4663 7.03254 13.7576C6.45479 10.2952 7.35625 7.37829 8.02005 5.76247C10.1958 1.98523 14.2565 -0.239147 18.5097 0.0210629C22.6769 0.272879 26.3893 2.86658 28.1635 6.75294C29.7739 11.4325 28.7413 16.4311 25.5616 19.4109C22.7548 22.0466 19.276 22.1641 18.2434 22.1599Z" fill="#9141F7"/>
<path d="M11.3952 22.1599V26.0001C11.0019 25.8658 1.64312 22.4663 0.184396 13.7576C-0.393356 10.2952 0.508101 7.37829 1.1719 5.76247C3.34769 1.98523 7.40835 -0.239147 11.6616 0.0210629C15.8288 0.272879 19.5411 2.86658 21.3154 6.75294C22.9257 11.4325 21.8931 16.4311 18.7134 19.4109C15.9066 22.0466 12.4278 22.1641 11.3952 22.1599Z" fill="#DDFD52"/>
<path d="M9.02697 9.2333L10.4242 9.70335C10.752 9.81247 11.1044 9.81667 11.4363 9.70755C11.9731 9.53128 12.5099 9.35921 13.0466 9.18293C14.4603 8.72127 15.7346 10.2867 14.9889 11.6004C14.1653 13.0567 12.7066 14.0346 11.1536 14.0808C9.55965 14.1311 8.01488 13.191 7.11752 11.7305C6.29801 10.3958 7.56005 8.73806 9.02697 9.2291V9.2333Z" fill="#9141F7"/>
</g>
<path d="M182.332 19.1876C181.516 19.1876 180.639 19.0969 179.702 18.9156C178.781 18.7494 178.055 18.5076 177.526 18.1903V15.5158C178.131 15.8784 178.856 16.1731 179.702 16.3997C180.548 16.6264 181.334 16.7397 182.06 16.7397C182.679 16.7397 183.132 16.6868 183.419 16.5811C183.707 16.4753 183.85 16.2789 183.85 15.9918C183.85 15.7651 183.767 15.5838 183.601 15.4478C183.435 15.2967 183.178 15.1682 182.83 15.0625C182.498 14.9416 181.939 14.7678 181.153 14.5412C180.231 14.2692 179.506 13.9972 178.977 13.7252C178.463 13.4381 178.07 13.083 177.798 12.6599C177.542 12.2368 177.413 11.6929 177.413 11.028C177.413 9.89473 177.859 9.04855 178.75 8.48946C179.657 7.91527 180.881 7.62817 182.422 7.62817C183.178 7.62817 183.956 7.71128 184.757 7.87749C185.573 8.0286 186.2 8.23259 186.638 8.48946V11.096C186.2 10.8089 185.626 10.5747 184.915 10.3934C184.22 10.212 183.54 10.1214 182.875 10.1214C182.256 10.1214 181.772 10.1818 181.425 10.3027C181.092 10.4236 180.926 10.6502 180.926 10.9827C180.926 11.2698 181.085 11.4889 181.402 11.64C181.735 11.7911 182.347 11.98 183.238 12.2066L183.691 12.3199C184.643 12.5768 185.384 12.8639 185.913 13.1812C186.442 13.4834 186.812 13.8536 187.023 14.2918C187.25 14.7149 187.363 15.2513 187.363 15.9011C187.363 16.8984 186.933 17.6992 186.071 18.3036C185.21 18.8929 183.963 19.1876 182.332 19.1876Z" fill="white"/>
<path d="M167.63 23.3355C167.177 23.3355 166.708 23.3053 166.225 23.2448C165.757 23.1844 165.401 23.1013 165.16 22.9955V20.4343C165.598 20.6005 166.081 20.6836 166.61 20.6836C167.154 20.6836 167.562 20.5627 167.834 20.321C168.121 20.0792 168.356 19.7014 168.537 19.1877L168.899 18.2584L164.185 7.96826H167.63L170.713 15.4706L173.637 7.96826H177.059L172.435 19.5957C171.922 20.8801 171.287 21.8245 170.531 22.4289C169.776 23.0333 168.809 23.3355 167.63 23.3355Z" fill="white"/>
<path d="M155.452 19.1877C153.971 19.1877 152.861 18.7873 152.12 17.9864C151.38 17.1705 151.01 16.0901 151.01 14.7453V7.96826H154.432V14.3826C154.432 15.803 155.09 16.5132 156.404 16.5132C156.978 16.5132 157.515 16.3772 158.013 16.1052C158.512 15.8332 158.928 15.4252 159.26 14.8812V7.96826H162.683V18.8477H159.373V17.5331C158.89 18.0922 158.301 18.5077 157.605 18.7797C156.925 19.0517 156.208 19.1877 155.452 19.1877Z" fill="white"/>
<path d="M142.911 19.1877C141.218 19.1877 139.723 18.8553 138.423 18.1904C137.124 17.5105 136.119 16.551 135.409 15.3119C134.698 14.0729 134.343 12.6147 134.343 10.9375C134.343 9.26022 134.698 7.80207 135.409 6.56302C136.119 5.30886 137.124 4.34936 138.423 3.6845C139.723 3.00453 141.218 2.66455 142.911 2.66455C144.059 2.66455 145.072 2.78543 145.948 3.0272C146.84 3.25385 147.655 3.6165 148.396 4.11514V7.40165C147.731 6.85767 146.968 6.4648 146.107 6.22304C145.26 5.96616 144.293 5.83772 143.205 5.83772C142.193 5.83772 141.279 6.04927 140.463 6.47236C139.662 6.88034 139.027 7.46964 138.559 8.24027C138.091 9.0109 137.856 9.90996 137.856 10.9375C137.856 11.9801 138.068 12.8943 138.491 13.68C138.929 14.4506 139.541 15.0475 140.327 15.4706C141.113 15.8937 142.019 16.1052 143.047 16.1052C143.984 16.1052 144.8 15.939 145.495 15.6066V12.5467H142.933V10.0082H148.827V17.6465C147.331 18.674 145.359 19.1877 142.911 19.1877Z" fill="white"/>
<path d="M130.219 19.1876C128.95 19.1876 127.983 18.8401 127.318 18.145C126.668 17.4348 126.343 16.4526 126.343 15.1985V10.4387H124.757V7.96818H126.343V4.70435H129.766V7.96818H132.327V10.4387H129.766V14.7452C129.766 15.3798 129.887 15.8407 130.129 16.1278C130.37 16.3998 130.801 16.5358 131.421 16.5358C131.919 16.5358 132.395 16.4149 132.848 16.1731V18.7343C132.153 19.0365 131.277 19.1876 130.219 19.1876Z" fill="white"/>
<path d="M111.351 7.96816H114.66V9.30542C115.159 8.74634 115.748 8.33081 116.428 8.05882C117.123 7.77172 117.849 7.62817 118.604 7.62817C120.085 7.62817 121.188 8.0286 121.913 8.82945C122.654 9.61518 123.024 10.6805 123.024 12.0253V18.8476H119.601V12.4106C119.601 11.0053 118.952 10.3027 117.652 10.3027C117.078 10.3027 116.541 10.4463 116.043 10.7334C115.544 11.0053 115.121 11.4133 114.774 11.9573V18.8476H111.351V7.96816Z" fill="white"/>
<path d="M103.56 19.1876C101.474 19.1876 99.8349 18.689 98.6412 17.6917C97.4474 16.6793 96.8506 15.2665 96.8506 13.4532C96.8506 11.6551 97.3794 10.2347 98.4372 9.19209C99.51 8.14948 101.036 7.62817 103.016 7.62817C104.315 7.62817 105.418 7.86994 106.325 8.35347C107.231 8.837 107.919 9.50941 108.387 10.3707C108.856 11.2169 109.09 12.1764 109.09 13.2492V14.6318H100.114C100.356 16.022 101.656 16.717 104.013 16.717C104.708 16.717 105.426 16.6566 106.166 16.5357C106.907 16.4148 107.549 16.2486 108.093 16.0371V18.4396C107.564 18.6663 106.884 18.8476 106.053 18.9836C105.222 19.1196 104.391 19.1876 103.56 19.1876ZM105.849 12.4106C105.803 11.6853 105.531 11.1262 105.033 10.7334C104.534 10.3254 103.847 10.1214 102.97 10.1214C102.109 10.1214 101.429 10.3254 100.93 10.7334C100.432 11.1413 100.16 11.7004 100.114 12.4106H105.849Z" fill="white"/>
<path d="M77.1484 7.96816H80.3443V9.28276C80.8127 8.75389 81.3567 8.34592 81.9762 8.05882C82.5957 7.77172 83.2379 7.62817 83.9028 7.62817C84.7338 7.62817 85.3987 7.76417 85.8973 8.03615C86.396 8.29303 86.7888 8.67834 87.0759 9.19209C87.5444 8.69345 88.111 8.30814 88.7759 8.03615C89.4558 7.76417 90.1282 7.62817 90.7931 7.62817C92.1832 7.62817 93.173 7.98327 93.7623 8.69345C94.3667 9.40364 94.6689 10.4311 94.6689 11.776V18.8476H91.4051V12.2519C91.4051 11.5569 91.2691 11.0582 90.9971 10.756C90.7251 10.4538 90.2869 10.3027 89.6825 10.3027C88.8363 10.3027 88.1563 10.6351 87.6426 11.3C87.6728 11.7835 87.6879 12.1764 87.6879 12.4786V18.8476H84.4014V12.1386C84.4014 11.4738 84.2805 11.0053 84.0388 10.7334C83.8121 10.4463 83.4117 10.3027 82.8375 10.3027C81.946 10.3027 81.1527 10.8089 80.4576 11.8213V18.8476H77.1484V7.96816Z" fill="white"/>
<path d="M65.8944 23.3355C65.4411 23.3355 64.9726 23.3053 64.4891 23.2448C64.0207 23.1844 63.6656 23.1013 63.4238 22.9955V20.4343C63.862 20.6005 64.3456 20.6836 64.8744 20.6836C65.4184 20.6836 65.8264 20.5627 66.0984 20.321C66.3855 20.0792 66.6197 19.7014 66.801 19.1877L67.1636 18.2584L62.4492 7.96826H65.8944L68.9769 15.4706L71.9007 7.96826H75.3232L70.6995 19.5957C70.1857 20.8801 69.5511 21.8245 68.7956 22.4289C68.04 23.0333 67.073 23.3355 65.8944 23.3355Z" fill="white"/>
<path d="M54.3513 19.1876C53.0215 19.1876 51.9336 18.8552 51.0874 18.1903C50.2564 17.5103 49.8408 16.5886 49.8408 15.4251C49.8408 14.2163 50.2412 13.2794 51.0421 12.6146C51.8429 11.9346 52.9762 11.5946 54.4419 11.5946C55.0917 11.5946 55.7112 11.6626 56.3005 11.7986C56.8898 11.9346 57.4111 12.1235 57.8644 12.3653V12.0933C57.8644 11.4133 57.6227 10.9147 57.1391 10.5974C56.6556 10.28 55.9152 10.1214 54.9179 10.1214C53.5882 10.1214 52.3642 10.3707 51.2461 10.8693V8.37614C51.7296 8.16459 52.3567 7.99082 53.1273 7.85483C53.8979 7.70373 54.6686 7.62817 55.4392 7.62817C57.4036 7.62817 58.8693 8.03615 59.8363 8.85211C60.8034 9.65296 61.2869 10.7787 61.2869 12.2293V18.8476H58.0684V17.8503C57.1467 18.7418 55.9076 19.1876 54.3513 19.1876ZM55.2805 16.921C55.8396 16.921 56.3458 16.8153 56.7991 16.6037C57.2524 16.3922 57.6075 16.0975 57.8644 15.7198V14.6318C57.0938 14.1181 56.2476 13.8612 55.3259 13.8612C54.6912 13.8612 54.2002 13.9972 53.8526 14.2692C53.5202 14.526 53.354 14.9114 53.354 15.4251C53.354 15.9086 53.5202 16.2789 53.8526 16.5357C54.185 16.7926 54.661 16.921 55.2805 16.921Z" fill="white"/>
<path d="M37 3.00439H43.6637C45.4618 3.00439 46.8973 3.48037 47.9701 4.43232C49.0429 5.36917 49.5794 6.67621 49.5794 8.35346C49.5794 10.076 49.0429 11.3982 47.9701 12.3199C46.9124 13.2417 45.4769 13.7025 43.6637 13.7025H40.4452V18.8476H37V3.00439ZM43.165 10.824C45.1143 10.824 46.0889 10.0005 46.0889 8.35346C46.0889 7.43173 45.8244 6.78954 45.2956 6.42689C44.7818 6.06424 44.0716 5.88292 43.165 5.88292H40.4452V10.824H43.165Z" fill="white"/>
<defs>
<clipPath id="clip0_16_2601">
<rect width="35" height="26" fill="white"/>
</clipPath>
</defs>
</svg>
