<?xml version="1.0" encoding="utf-8"?><svg xmlns="http://www.w3.org/2000/svg" xmlns:xlink="http://www.w3.org/1999/xlink"><symbol viewBox="0 0 17 12" id="arrow" xmlns="http://www.w3.org/2000/svg"><path fill-rule="evenodd" clip-rule="evenodd" d="M14.7491 6.0025L10.2793 1.53008L11.3403 0.469727L16.8704 6.00311L11.34 11.5304L10.2796 10.4694L14.7491 6.0025Z"/><path fill-rule="evenodd" clip-rule="evenodd" d="M0 5.25H15V6.75H0V5.25Z"/></symbol><symbol viewBox="0 0 18 18" id="mail" xmlns="http://www.w3.org/2000/svg"><path d="M12.5415 15.0208H5.45817C3.33317 15.0208 1.9165 13.9583 1.9165 11.4792V6.52083C1.9165 4.04166 3.33317 2.97916 5.45817 2.97916H12.5415C14.6665 2.97916 16.0832 4.04166 16.0832 6.52083V11.4792C16.0832 13.9583 14.6665 15.0208 12.5415 15.0208Z"/><path d="M12.5418 6.875L10.3247 8.64583C9.59516 9.22667 8.39808 9.22667 7.66849 8.64583L5.4585 6.875"/></symbol><symbol viewBox="0 0 18 18" id="user" xmlns="http://www.w3.org/2000/svg"><path d="M9.11331 8.19958C9.04248 8.1925 8.95748 8.1925 8.87956 8.19958C7.19373 8.14292 5.85498 6.76167 5.85498 5.06167C5.85498 3.32625 7.25748 1.91667 8.99998 1.91667C10.7354 1.91667 12.145 3.32625 12.145 5.06167C12.1379 6.76167 10.7991 8.14292 9.11331 8.19958Z"/><path d="M5.57176 10.8133C3.85759 11.9608 3.85759 13.8308 5.57176 14.9712C7.51967 16.2746 10.7143 16.2746 12.6622 14.9712C14.3763 13.8237 14.3763 11.9537 12.6622 10.8133C10.7213 9.51708 7.52676 9.51708 5.57176 10.8133Z"/></symbol></svg>