<svg width="27" height="9" viewBox="0 0 27 9" fill="none" xmlns="http://www.w3.org/2000/svg">
<g clip-path="url(#clip0_50_646)">
<path d="M17.431 0.013916C15.5867 0.013916 13.9386 1.03304 13.9386 2.91595C13.9386 5.07529 16.8616 5.22444 16.8616 6.30923C16.8616 6.76599 16.3706 7.17486 15.5321 7.17486C14.342 7.17486 13.4525 6.60354 13.4525 6.60354L13.0719 8.50361C13.0719 8.50361 14.0966 8.9862 15.457 8.9862C17.4733 8.9862 19.06 7.91703 19.06 6.00193C19.06 3.7202 16.1248 3.57548 16.1248 2.56861C16.1248 2.21081 16.5278 1.81876 17.364 1.81876C18.3075 1.81876 19.0772 2.23426 19.0772 2.23426L19.4497 0.399123C19.4497 0.399123 18.6121 0.013916 17.431 0.013916ZM0.55784 0.152417L0.513184 0.42942C0.513184 0.42942 1.28907 0.580808 1.98787 0.882795C2.88764 1.22908 2.95174 1.43068 3.10328 2.05681L4.75456 8.84337H6.96812L10.3783 0.152417H8.16979L5.97856 6.06144L5.08441 1.05268C5.00241 0.479426 4.58705 0.152417 4.07862 0.152417H0.55784ZM11.2663 0.152417L9.53385 8.84337H11.6398L13.3662 0.152417H11.2663ZM23.0121 0.152417C22.5042 0.152417 22.2352 0.442277 22.0377 0.948799L18.9524 8.84337H21.1609L21.5881 7.52761H24.2787L24.5385 8.84337H26.4872L24.7872 0.152417H23.0121ZM23.2993 2.50045L23.9539 5.76172H22.2001L23.2993 2.50045Z" fill="white"/>
</g>
<defs>
<clipPath id="clip0_50_646">
<rect width="26" height="9" fill="white" transform="translate(0.5)"/>
</clipPath>
</defs>
</svg>
