<svg width="27" height="17" viewBox="0 0 27 17" fill="none" xmlns="http://www.w3.org/2000/svg">
<g clip-path="url(#clip0_50_640)">
<path fill-rule="evenodd" clip-rule="evenodd" d="M9.8877 14.769H16.8464V2.20801H9.8877V14.769Z" fill="#FF5F00"/>
<path fill-rule="evenodd" clip-rule="evenodd" d="M10.3295 8.48847C10.3295 5.94015 11.5173 3.67054 13.367 2.20798C12.0141 1.13819 10.3074 0.5 8.45215 0.5C4.06021 0.5 0.5 4.07662 0.5 8.48847C0.5 12.9003 4.06021 16.4769 8.45215 16.4769C10.3074 16.4769 12.0141 15.8388 13.367 14.769C11.5173 13.3062 10.3295 11.0368 10.3295 8.48847Z" fill="#EB001B"/>
<path fill-rule="evenodd" clip-rule="evenodd" d="M25.9859 13.4385V13.1285H25.9052L25.8127 13.3418L25.7199 13.1285H25.6393V13.4385H25.696V13.2047L25.7831 13.4064H25.8421L25.9291 13.2042V13.4385H25.9859ZM25.4753 13.4385V13.1814H25.5787V13.129H25.3158V13.1814H25.419V13.4385H25.4753ZM26.2342 8.48835C26.2342 12.9002 22.6737 16.4768 18.282 16.4768C16.4268 16.4768 14.7198 15.8386 13.3672 14.7688C15.2169 13.3063 16.4047 11.0367 16.4047 8.48835C16.4047 5.94025 15.2169 3.67064 13.3672 2.20786C14.7198 1.13807 16.4268 0.499878 18.282 0.499878C22.6737 0.499878 26.2342 4.0765 26.2342 8.48835Z" fill="#F79E1B"/>
</g>
<defs>
<clipPath id="clip0_50_640">
<rect width="26" height="16" fill="white" transform="translate(0.5 0.5)"/>
</clipPath>
</defs>
</svg>
