<svg width="61" height="72" viewBox="0 0 61 72" fill="none" xmlns="http://www.w3.org/2000/svg">
<path fill-rule="evenodd" clip-rule="evenodd" d="M31.6632 71.6088V61.0898C34.4916 61.1013 44.0207 60.7794 51.7091 53.5598C60.4188 45.3976 63.2472 31.7056 58.8362 18.8874C53.9763 8.24199 43.8074 1.13736 32.3928 0.447593C20.7424 -0.265169 9.61951 5.82779 3.65963 16.1743C1.84136 20.6004 -0.627893 28.5902 0.954674 38.0745C4.95038 61.929 30.5857 71.2409 31.6632 71.6088ZM29.0034 26.9691L25.1761 25.6816V25.6701C21.1579 24.325 17.701 28.866 19.9457 32.5218C22.4038 36.5224 26.6352 39.0976 31.0013 38.9596C35.2551 38.8332 39.2508 36.1546 41.5068 32.1654C43.5496 28.5671 40.0589 24.279 36.1867 25.5436C35.4515 25.785 34.7163 26.0236 33.9811 26.2621C33.246 26.5007 32.5108 26.7392 31.7757 26.9806C30.8666 27.2795 29.9013 27.268 29.0034 26.9691Z" fill="#DDFD52"/>
</svg>
